<?xml version="1.0" standalone="no"?>
<!DOCTYPE svg PUBLIC "-//W3C//DTD SVG 20010904//EN"
 "http://www.w3.org/TR/2001/REC-SVG-20010904/DTD/svg10.dtd">
<svg version="1.0" xmlns="http://www.w3.org/2000/svg"
 width="2400.000000pt" height="2400.000000pt" viewBox="0 0 2400.000000 2400.000000"
 preserveAspectRatio="xMidYMid meet">

<g transform="translate(0.000000,2400.000000) scale(0.100000,-0.100000)"
fill="#000000" stroke="none">
<path d="M11535 23993 c-627 -29 -1038 -71 -1560 -158 -2078 -348 -4029 -1243
-5657 -2596 -1283 -1067 -2302 -2363 -3053 -3884 -606 -1228 -999 -2532 -1170
-3877 -100 -790 -117 -1629 -49 -2433 37 -442 122 -1015 229 -1536 255 -1237
747 -2487 1431 -3626 127 -213 431 -672 577 -872 557 -763 1186 -1443 1902
-2056 1109 -951 2378 -1687 3750 -2178 1982 -709 4157 -880 6235 -491 2136
400 4130 1382 5765 2839 1456 1298 2591 2971 3265 4815 778 2130 931 4486 435
6710 -147 660 -397 1390 -726 2118 -120 264 -289 603 -314 628 -28 28 -62 21
-84 -17 -13 -23 -9 -36 59 -179 513 -1094 870 -2325 1025 -3530 139 -1085 135
-2120 -11 -3150 -238 -1680 -836 -3279 -1766 -4725 -341 -530 -701 -1001
-1152 -1510 -205 -231 -689 -715 -921 -921 -191 -170 -469 -404 -479 -404 -3
0 -17 39 -32 87 -43 143 -207 605 -305 860 -102 265 -178 437 -264 593 -179
327 -450 654 -697 838 -263 197 -625 379 -1073 542 -49 18 -164 65 -255 105
-91 40 -181 78 -201 85 l-36 13 -43 161 c-156 585 -347 1081 -530 1373 -13 20
-9 27 53 95 473 515 772 1055 922 1661 105 429 140 797 155 1667 15 872 58
1326 175 1837 253 1106 315 1503 315 2006 0 269 -21 476 -76 753 -9 46 -15 86
-13 88 2 2 54 29 115 59 524 262 825 539 842 776 13 194 -91 276 -383 298
l-98 8 124 111 c148 133 323 312 401 409 136 170 238 361 285 531 24 86 27
117 27 244 0 117 -4 162 -22 233 -45 179 -137 362 -273 537 -299 387 -712 615
-1271 702 -120 18 -184 22 -403 22 -259 0 -393 -11 -586 -48 -41 -8 -75 -13
-77 -11 -2 1 4 29 12 61 43 167 45 387 6 539 -97 379 -428 626 -905 675 -145
15 -469 8 -665 -15 -726 -85 -1781 -363 -2825 -746 l-200 -73 -595 -1 c-632
-1 -675 -3 -985 -56 -977 -166 -1688 -664 -2075 -1453 -90 -185 -135 -296
-185 -463 -85 -278 -135 -564 -154 -887 -6 -87 -11 -159 -13 -161 -2 -1 -39
-21 -83 -43 -370 -186 -698 -603 -873 -1112 -134 -389 -210 -944 -199 -1445 7
-338 44 -589 138 -931 301 -1104 882 -2110 1766 -3058 l120 -129 -19 -91 c-34
-156 -86 -326 -144 -466 -31 -74 -70 -169 -87 -211 l-31 -76 -196 -53 c-948
-257 -1602 -634 -2035 -1175 -155 -192 -236 -344 -265 -493 -16 -78 -8 -277
15 -417 19 -112 15 -218 -10 -302 -15 -51 -19 -55 -143 -141 -148 -104 -285
-192 -646 -414 -655 -404 -860 -557 -1008 -751 -156 -204 -322 -533 -428 -847
-35 -103 -110 -393 -110 -423 0 -10 -4 -17 -9 -15 -5 2 -70 75 -143 163 -1483
1780 -2403 3923 -2652 6180 -53 477 -70 852 -63 1405 6 543 34 933 103 1425
422 3041 1953 5718 4343 7595 1772 1391 3945 2255 6186 2459 397 36 612 45
1065 45 452 0 651 -9 1045 -45 1779 -162 3477 -721 5040 -1657 1151 -690 2284
-1679 3128 -2732 77 -96 145 -178 151 -182 20 -14 63 -8 79 10 33 36 21 66
-86 209 -707 945 -1589 1809 -2542 2490 -2035 1453 -4479 2227 -6980 2211
-159 -1 -317 -3 -350 -5z m940 -7263 c477 -35 996 -142 1617 -334 851 -263
1265 -356 1731 -386 354 -24 736 38 968 156 27 13 50 20 53 16 12 -19 112
-365 151 -522 132 -530 174 -958 146 -1465 -25 -430 -68 -758 -171 -1280 -133
-675 -155 -875 -185 -1645 -35 -924 -76 -1315 -180 -1715 -199 -765 -668
-1456 -1322 -1947 -557 -418 -1227 -670 -1978 -743 -204 -20 -608 -23 -810 -6
-696 60 -1413 272 -2009 596 -125 68 -154 76 -180 49 -29 -28 -18 -52 50 -108
377 -311 937 -590 1486 -740 104 -28 139 -43 200 -84 452 -305 1035 -509 1678
-587 74 -9 149 -18 166 -21 27 -4 38 -17 85 -96 30 -50 81 -120 114 -155 51
-54 66 -65 101 -70 l41 -5 22 -122 c98 -545 15 -929 -256 -1187 -192 -182
-425 -280 -793 -331 -135 -18 -509 -15 -690 6 -1260 146 -2399 811 -3187 1861
-202 268 -435 641 -569 907 -25 50 -57 109 -71 131 -23 36 -27 39 -63 35 l-39
-3 -41 98 -41 98 54 77 c232 331 392 757 477 1266 72 433 85 646 85 1359 l0
598 24 -6 c69 -17 79 -17 100 4 24 24 27 53 9 69 -7 5 -77 38 -156 71 -149 64
-283 129 -316 153 -17 14 -17 16 -2 45 27 53 66 202 72 277 12 150 60 254 179
384 54 59 59 62 91 56 26 -5 40 -2 54 11 27 25 25 50 -9 104 -17 25 -47 82
-68 126 -36 75 -38 86 -38 175 0 53 8 137 19 190 24 123 25 307 1 410 -9 41
-32 107 -50 145 -76 160 -191 240 -378 265 -230 31 -421 -92 -488 -312 -18
-58 -21 -87 -17 -167 6 -108 20 -149 56 -158 34 -8 49 12 70 93 24 90 75 185
123 229 54 48 102 61 185 47 125 -21 195 -87 210 -199 l7 -53 -89 0 c-247 -1
-441 -163 -513 -430 -35 -130 -43 -270 -31 -523 6 -126 9 -231 7 -234 -8 -7
-111 121 -179 222 -324 482 -390 1131 -161 1590 131 262 306 410 513 435 110
13 300 13 376 -1 90 -16 180 -47 274 -95 252 -130 483 -393 624 -714 36 -80
46 -95 67 -98 15 -2 32 5 43 17 17 19 17 24 -3 129 -29 150 -61 245 -132 391
l-61 124 -5 281 c-16 813 111 1477 385 2010 352 686 927 1088 1732 1211 222
34 568 44 835 25z m-3878 -6691 c50 -48 135 -124 189 -170 l97 -84 -6 -129
c-4 -71 -8 -130 -9 -131 -3 -3 -381 -30 -542 -40 -78 -4 -97 -3 -93 7 3 7 28
65 55 128 57 131 119 313 153 447 27 107 8 110 156 -28z"/>
<path d="M12406 15120 c-256 -30 -491 -102 -579 -179 -49 -44 -49 -73 2 -121
74 -71 276 -136 801 -260 402 -94 679 -164 820 -208 134 -41 196 -44 257 -14
53 27 110 95 124 146 30 110 -23 280 -115 369 -109 106 -369 198 -699 248
-151 23 -487 33 -611 19z"/>
<path d="M16200 14896 c-178 -32 -351 -97 -435 -165 -118 -96 -171 -282 -116
-406 28 -62 55 -93 106 -116 58 -27 81 -24 228 26 73 24 281 85 463 134 362
99 478 137 548 181 81 52 85 106 13 173 -56 51 -221 131 -327 158 -109 27
-367 35 -480 15z"/>
<path d="M12380 13549 c-132 -34 -253 -101 -332 -183 -51 -51 -78 -105 -85
-167 -10 -84 29 -103 92 -46 20 19 49 41 63 49 l27 16 -3 -171 c-3 -155 -2
-178 18 -228 27 -75 87 -141 158 -176 50 -25 68 -28 152 -28 76 0 104 4 142
22 63 29 135 97 165 157 25 50 37 142 45 348 l3 67 75 -33 c41 -18 120 -60
175 -93 122 -73 123 -74 158 -56 74 37 47 136 -81 290 -95 114 -231 196 -385
233 -111 27 -283 26 -387 -1z"/>
<path d="M15337 13438 c-15 -8 -17 -31 -17 -198 0 -452 105 -866 341 -1347
110 -222 120 -264 95 -390 -20 -104 -74 -223 -140 -310 -108 -143 -306 -277
-511 -348 -44 -16 -86 -34 -94 -41 -17 -15 -18 -59 -1 -79 17 -20 137 -20 238
1 209 43 381 134 535 283 183 177 278 396 264 610 -8 129 -29 189 -132 381
-85 160 -213 426 -229 475 -5 19 -1 20 82 20 76 0 94 4 145 29 67 34 121 89
150 154 20 47 43 271 35 353 l-3 35 34 -20 c18 -11 60 -44 91 -73 63 -58 76
-62 110 -35 29 24 23 63 -25 159 -56 112 -157 203 -273 246 -84 32 -281 31
-367 -1 -77 -29 -157 -84 -194 -134 l-29 -39 -32 135 c-18 74 -38 137 -45 139
-6 3 -19 1 -28 -5z"/>
<path d="M13026 10536 c-56 -21 -86 -45 -123 -99 -133 -196 -11 -630 255 -909
128 -133 274 -219 465 -270 65 -17 110 -22 222 -22 157 -1 229 15 355 79 198
101 366 309 420 522 11 41 22 78 24 82 3 5 27 11 54 15 45 6 92 28 92 45 0 4
-6 15 -13 25 -12 16 -16 16 -72 1 -117 -30 -281 -13 -473 51 -135 45 -390 168
-547 264 -300 183 -386 220 -530 226 -63 3 -102 0 -129 -10z m624 -820 c58
-13 146 -38 195 -56 99 -34 435 -197 435 -210 0 -25 -168 -110 -265 -135 -75
-19 -242 -20 -332 -1 -110 23 -238 74 -318 126 -108 71 -266 234 -251 258 5 9
95 35 156 46 64 12 279 -4 380 -28z"/>
</g>
</svg>
