<?xml version="1.0" standalone="no"?>
<!DOCTYPE svg PUBLIC "-//W3C//DTD SVG 20010904//EN"
 "http://www.w3.org/TR/2001/REC-SVG-20010904/DTD/svg10.dtd">
<svg version="1.0" xmlns="http://www.w3.org/2000/svg"
 width="2400.000000pt" height="2400.000000pt" viewBox="0 0 2400.000000 2400.000000"
 preserveAspectRatio="xMidYMid meet">

<g transform="translate(0.000000,2400.000000) scale(0.100000,-0.100000)"
fill="#000000" stroke="none">
<path d="M11535 23993 c-282 -13 -502 -27 -680 -44 -2780 -257 -5362 -1469
-7340 -3444 -1880 -1877 -3116 -4449 -3429 -7135 -62 -533 -80 -901 -73 -1499
6 -552 28 -863 93 -1351 29 -220 111 -705 160 -950 420 -2096 1442 -4065 2956
-5698 89 -95 162 -171 164 -169 2 2 11 89 19 193 18 221 53 447 96 617 117
466 344 944 538 1138 119 119 421 325 996 681 182 113 376 235 433 271 66 43
104 63 107 55 2 -7 20 -74 40 -148 141 -516 450 -1144 820 -1665 499 -703
1187 -1337 1979 -1824 l100 -61 1 -242 c3 -374 59 -698 210 -1213 79 -269 325
-969 350 -993 7 -7 164 -26 170 -20 3 3 -33 106 -81 229 -241 626 -408 1221
-465 1659 -19 145 -31 461 -18 474 3 3 68 -29 145 -71 290 -159 700 -347 1052
-483 156 -60 163 -62 187 -46 18 12 25 25 25 50 0 18 -6 38 -13 44 -6 5 -93
44 -191 87 -339 145 -723 340 -1042 531 -71 42 -130 78 -132 79 -1 1 8 63 22
136 14 74 32 199 41 279 9 80 18 146 19 147 1 1 22 -14 46 -34 73 -58 298
-216 390 -273 188 -118 506 -290 536 -290 20 0 47 46 37 63 -4 8 -55 52 -113
97 -257 204 -485 405 -716 632 l-171 169 -7 152 c-29 679 -146 1277 -541 2777
-189 721 -247 1063 -247 1460 0 224 14 383 53 575 21 108 85 343 100 366 7 11
53 13 261 11 139 -1 297 -5 351 -8 l98 -7 -6 -81 c-21 -321 -28 -402 -46 -566
-53 -480 -136 -838 -259 -1127 -69 -160 -64 -154 -88 -107 -63 123 -140 403
-167 609 -10 72 -22 136 -27 143 -15 17 -63 15 -79 -5 -22 -25 -18 -386 5
-528 31 -191 87 -408 126 -486 19 -37 55 -59 95 -59 36 0 75 18 75 34 0 8 29
56 64 107 229 336 380 748 466 1263 68 414 85 687 84 1373 -2 625 -7 574 64
553 29 -8 37 -6 58 15 41 41 23 61 -97 110 -130 52 -245 105 -326 150 l-62 35
25 55 c33 76 61 192 73 301 14 136 59 222 184 353 52 54 60 59 81 50 30 -14
63 3 72 36 4 17 -3 37 -26 70 -51 74 -98 186 -111 261 -9 61 -8 81 11 169 31
140 37 333 16 450 -33 175 -129 321 -250 380 -113 55 -268 71 -377 39 -214
-63 -347 -302 -298 -536 14 -67 25 -80 62 -76 29 3 31 7 52 83 64 239 180 324
366 269 95 -28 142 -90 164 -214 l6 -35 -73 3 c-191 10 -396 -110 -476 -279
-84 -176 -97 -274 -88 -641 4 -153 5 -278 2 -278 -9 0 -132 159 -189 245 -116
176 -209 404 -259 635 -30 143 -33 498 -5 628 55 247 155 442 306 592 138 137
241 172 506 173 188 1 284 -18 421 -82 277 -130 495 -366 659 -715 30 -62 61
-116 70 -120 9 -3 26 -1 37 5 19 10 20 17 15 75 -13 138 -89 369 -165 504
l-37 65 -3 330 c-3 190 1 398 8 490 41 572 153 1028 350 1430 336 686 879
1097 1645 1245 360 69 871 69 1350 -1 391 -57 707 -133 1300 -314 909 -278
1342 -365 1810 -365 309 0 566 50 799 154 33 14 60 25 62 23 7 -6 108 -353
144 -492 127 -488 166 -826 157 -1325 -9 -482 -53 -842 -177 -1475 -131 -669
-153 -870 -185 -1710 -23 -619 -41 -852 -91 -1195 -60 -417 -149 -716 -315
-1060 -182 -376 -397 -678 -694 -976 -623 -624 -1386 -980 -2340 -1090 -187
-22 -696 -25 -890 -6 -699 70 -1367 270 -1960 587 -77 41 -148 75 -157 75 -23
0 -48 -38 -40 -60 15 -41 337 -270 556 -395 288 -165 661 -317 996 -407 82
-22 130 -41 170 -68 380 -256 839 -442 1341 -544 140 -28 364 -62 479 -72 l76
-6 34 -61 c50 -87 142 -208 181 -236 19 -14 47 -25 66 -25 l32 0 20 -110 c31
-169 41 -268 41 -416 0 -342 -87 -585 -280 -780 -169 -171 -390 -273 -718
-332 -111 -19 -161 -22 -397 -23 -272 0 -357 6 -605 46 -636 101 -1275 358
-1828 735 -423 288 -826 675 -1144 1099 -195 260 -398 583 -565 902 -73 140
-99 173 -136 173 -26 0 -67 -45 -67 -73 0 -13 46 -116 103 -228 467 -923 1079
-1640 1822 -2136 166 -110 271 -171 464 -267 936 -469 1757 -642 2436 -515
523 98 927 436 1049 879 52 187 66 515 32 735 -37 233 -123 515 -226 739 -23
50 -53 149 -78 252 -48 197 -74 316 -69 320 1 2 57 19 122 39 436 132 828 328
1179 589 l113 84 12 -107 c45 -421 37 -907 -24 -1309 -41 -275 -61 -608 -75
-1232 -14 -665 -25 -847 -86 -1410 l-27 -245 -71 -85 c-39 -47 -153 -169 -253
-271 -101 -103 -183 -194 -183 -203 0 -23 36 -56 61 -56 27 0 112 73 287 244
127 125 133 129 128 96 -3 -19 -22 -161 -41 -315 -44 -348 -114 -857 -118
-861 -2 -2 -39 69 -82 157 -43 88 -93 177 -111 197 -44 52 -122 92 -206 106
l-70 12 -72 204 c-134 376 -268 687 -307 709 -35 20 -83 -3 -87 -42 -2 -15 23
-101 56 -194 78 -218 140 -411 193 -601 l42 -153 -36 -37 c-55 -57 -90 -141
-90 -221 -1 -77 98 -491 137 -577 80 -174 286 -258 471 -190 38 14 71 24 73
22 1 -2 -15 -120 -37 -261 -23 -142 -40 -260 -38 -261 3 -3 158 34 163 39 17
16 237 1563 319 2240 l35 288 58 77 c403 534 681 1171 816 1870 35 178 62 399
76 606 6 94 12 171 13 173 5 4 427 -148 567 -204 191 -76 438 -190 572 -265
403 -224 731 -600 977 -1120 158 -333 428 -1070 586 -1600 14 -49 29 -88 33
-88 4 0 75 53 157 117 1766 1377 3116 3231 3885 5333 724 1981 908 4149 529
6244 -149 828 -401 1630 -781 2489 -120 273 -344 726 -362 733 -26 10 -66 -5
-77 -29 -8 -18 0 -44 50 -149 601 -1273 978 -2681 1095 -4098 36 -431 40 -540
40 -1015 1 -497 -7 -666 -45 -1070 -212 -2256 -1087 -4411 -2527 -6225 -491
-619 -1085 -1226 -1682 -1723 -80 -66 -152 -127 -161 -134 -15 -13 -21 -1 -59
119 -23 73 -84 250 -135 393 -277 779 -407 1051 -667 1397 -257 342 -520 552
-963 770 -135 66 -500 218 -585 243 -14 4 -99 40 -190 80 -91 39 -191 82 -222
94 -53 21 -59 27 -69 65 -182 686 -339 1110 -538 1451 l-40 70 78 80 c243 249
474 578 646 922 310 621 424 1293 425 2508 0 626 63 1255 171 1720 160 689
247 1140 291 1500 18 148 22 236 22 490 1 330 -9 438 -67 741 l-23 121 138 68
c275 137 475 272 629 425 87 87 113 119 147 187 47 96 59 165 42 247 -14 68
-46 108 -110 141 -64 33 -116 44 -252 58 l-116 12 86 75 c436 383 658 686 732
1004 68 289 2 580 -198 879 -277 414 -690 681 -1211 781 -201 39 -312 49 -536
49 -218 1 -366 -11 -545 -44 -58 -10 -110 -19 -116 -19 -7 0 -4 24 7 70 70
274 33 574 -95 775 -126 196 -360 347 -626 405 -645 141 -1994 -130 -3675
-737 l-220 -80 -220 9 c-305 13 -876 4 -1045 -16 -496 -58 -840 -153 -1200
-332 -701 -348 -1168 -942 -1380 -1758 -66 -253 -120 -628 -120 -836 l0 -76
-72 -35 c-227 -107 -469 -332 -641 -594 -75 -114 -194 -359 -242 -495 -156
-449 -244 -1157 -205 -1656 47 -592 272 -1324 620 -2009 320 -630 786 -1285
1279 -1798 l123 -127 -27 -123 c-37 -165 -98 -347 -187 -556 l-75 -175 -164
-42 c-576 -149 -1117 -384 -1489 -647 -266 -188 -525 -448 -690 -691 -145
-216 -181 -376 -144 -651 24 -181 25 -332 1 -405 -14 -44 -26 -61 -60 -85
-164 -114 -417 -278 -687 -444 -603 -371 -853 -548 -982 -694 -253 -287 -486
-795 -595 -1297 l-18 -84 -106 124 c-714 842 -1332 1831 -1782 2850 -764 1730
-1091 3614 -952 5477 158 2105 863 4113 2038 5808 568 818 1274 1596 2032
2239 1011 856 2155 1535 3390 2011 2147 827 4470 1005 6708 514 1833 -402
3584 -1256 5008 -2441 692 -575 1267 -1161 1801 -1833 47 -59 70 -81 90 -83
32 -4 68 28 68 60 0 23 -160 242 -359 488 -1221 1517 -2809 2707 -4616 3460
-1470 612 -3066 927 -4645 918 -162 -1 -322 -3 -355 -5z m-2759 -11725 c-15
-98 -15 -165 -2 -256 30 -196 76 -335 145 -436 17 -24 31 -48 31 -53 -1 -4
-21 -28 -46 -53 -74 -73 -141 -182 -170 -275 l-26 -84 -57 -22 c-83 -32 -223
-38 -283 -11 l-45 20 -6 63 c-4 35 -9 186 -13 334 -6 246 -4 279 14 365 50
241 184 386 397 430 66 13 66 13 61 -22z m-58 -1280 c-23 -124 -118 -338 -172
-386 -66 -58 -157 -52 -215 13 -36 41 -38 54 -46 264 l-6 163 28 -7 c107 -27
244 -25 373 4 19 4 38 6 41 5 4 -2 2 -27 -3 -56z m32 -438 c13 -8 13 -10 -2
-10 -9 0 -20 5 -23 10 -8 13 5 13 25 0z m13 -659 l117 -104 0 -134 c0 -100 -3
-133 -12 -133 -7 0 -94 -7 -193 -15 -256 -20 -445 -29 -445 -21 0 3 25 66 56
139 64 152 121 321 154 455 l22 93 92 -88 c50 -49 144 -135 209 -192z m-824
-789 c-62 -244 -80 -390 -86 -684 -8 -374 13 -566 113 -1018 43 -193 78 -333
309 -1235 156 -607 243 -1022 299 -1420 27 -189 60 -542 54 -572 -6 -31 -314
328 -547 637 -292 388 -526 762 -743 1190 -60 118 -117 221 -127 228 -26 18
-51 5 -51 -29 0 -15 9 -76 21 -134 76 -395 304 -913 592 -1345 190 -285 343
-468 630 -755 l230 -230 -11 -145 c-12 -143 -32 -295 -53 -398 l-11 -52 -111
76 c-401 275 -764 579 -1077 901 -783 804 -1290 1722 -1486 2691 -24 119 -42
174 -63 186 -5 4 -5 23 1 48 17 71 12 215 -12 362 -39 239 -23 339 77 514 252
435 760 830 1440 1115 167 70 641 234 649 224 1 -1 -16 -71 -37 -155z m7896
-2057 c106 -260 230 -639 302 -915 l45 -175 1 -225 c1 -584 -127 -1222 -355
-1765 -65 -156 -191 -403 -274 -535 l-65 -105 5 50 c41 347 64 728 76 1215 17
714 32 1000 70 1280 74 561 79 1035 15 1520 -5 40 1 32 61 -85 37 -71 90 -188
119 -260z"/>
<path d="M12457 15119 c-295 -22 -613 -125 -655 -211 -46 -97 129 -175 703
-313 635 -153 806 -196 932 -234 156 -48 200 -51 271 -15 110 55 154 167 118
301 -35 132 -105 219 -225 282 -265 138 -757 220 -1144 190z"/>
<path d="M16242 14899 c-209 -28 -415 -110 -507 -203 -84 -84 -125 -233 -95
-343 18 -62 89 -137 145 -152 46 -12 59 -9 235 49 69 22 217 66 330 96 517
140 609 172 674 236 32 31 37 42 32 65 -19 81 -220 196 -421 239 -88 19 -297
26 -393 13z"/>
<path d="M12420 13555 c-164 -34 -327 -126 -400 -227 -37 -51 -65 -136 -56
-172 9 -36 53 -36 87 0 13 14 41 34 61 45 l37 19 -2 -183 c-2 -172 -1 -185 22
-234 28 -62 103 -136 169 -166 67 -31 198 -30 266 1 79 36 131 85 167 158 31
62 33 75 40 213 4 80 8 158 8 174 1 15 6 27 12 27 19 0 172 -77 266 -134 50
-31 100 -56 110 -56 11 0 30 10 42 21 50 47 4 159 -122 295 -109 117 -240 188
-405 220 -90 17 -215 17 -302 -1z"/>
<path d="M15329 13419 c-16 -31 -6 -400 16 -539 52 -340 152 -649 316 -981 45
-90 88 -181 95 -203 33 -93 5 -260 -68 -400 -51 -96 -193 -247 -298 -315 -77
-50 -223 -121 -300 -146 -66 -21 -90 -40 -90 -71 0 -43 39 -58 136 -50 384 31
742 290 864 624 73 200 58 395 -44 580 -98 177 -292 579 -283 588 1 2 22 -2
46 -7 89 -20 189 11 266 82 85 79 104 139 106 348 1 77 3 141 6 141 11 0 100
-67 134 -101 42 -42 53 -47 86 -35 33 11 36 37 12 102 -91 247 -346 380 -607
319 -111 -26 -218 -95 -263 -169 l-18 -29 -7 29 c-4 16 -19 78 -34 139 -27
115 -46 140 -71 94z"/>
<path d="M13050 10541 c-158 -48 -226 -209 -186 -440 52 -298 264 -603 518
-745 91 -51 258 -103 371 -117 294 -36 581 100 751 355 53 80 106 198 120 270
l13 61 54 11 c78 16 91 23 87 48 -2 17 -9 21 -38 18 -163 -13 -256 -13 -333 3
-210 42 -481 161 -772 340 -88 54 -194 114 -235 133 -132 60 -274 86 -350 63z
m618 -825 c174 -44 403 -139 575 -240 l47 -28 -22 -18 c-131 -102 -332 -154
-508 -131 -245 31 -447 141 -603 326 l-58 69 25 13 c97 51 360 55 544 9z"/>
<path d="M11682 2913 c-45 -40 -220 -647 -295 -1027 l-13 -69 -59 -19 c-98
-32 -165 -88 -209 -175 -9 -18 -39 -142 -67 -275 -61 -296 -63 -355 -11 -460
38 -78 100 -138 182 -177 48 -23 68 -26 155 -26 93 0 105 2 167 33 81 40 148
110 180 190 22 55 23 68 23 347 l0 290 -33 67 c-21 42 -51 83 -82 111 -38 34
-50 52 -50 74 0 92 100 571 185 887 25 91 45 174 45 185 0 52 -76 80 -118 44z"/>
</g>
</svg>
